<?xml version="1.0" encoding="UTF-8" standalone="no"?><!DOCTYPE svg PUBLIC "-//W3C//DTD SVG 1.1//EN" "http://www.w3.org/Graphics/SVG/1.1/DTD/svg11.dtd"><svg width="100%" height="100%" viewBox="0 0 4600 4600" version="1.1" xmlns="http://www.w3.org/2000/svg" xmlns:xlink="http://www.w3.org/1999/xlink" xml:space="preserve" style="fill-rule:evenodd;clip-rule:evenodd;stroke-linejoin:round;stroke-miterlimit:1.41421;"><path id="layer1" d="M1681,2434c10,-13 24,-15 64,-10c129,16 330,59 406,87c46,17 95,33 109,36c36,7 271,121 295,142c11,10 32,25 47,32c37,19 146,127 187,184c77,109 138,325 127,449c-11,116 -55,250 -112,335c-16,24 -38,57 -49,75c-26,40 -76,94 -174,186c-29,27 -57,50 -62,50c-4,0 -23,13 -41,28c-18,16 -64,46 -103,68c-38,22 -79,46 -90,52c-103,59 -350,136 -532,166c-94,16 -269,26 -343,20c-71,-6 -192,-24 -226,-35c-83,-26 -179,-225 -178,-369c0,-41 6,-91 12,-111c7,-20 10,-42 7,-50c-3,-8 -34,-32 -68,-54c-67,-43 -91,-77 -102,-140c-5,-33 -2,-47 19,-77l25,-37l-28,-6c-60,-13 -91,-72 -91,-171l0,-64l-82,-39c-163,-78 -195,-119 -184,-231c6,-61 55,-165 114,-244c52,-69 87,-122 124,-191l33,-60l0,-235c-1,-172 -5,-264 -18,-343c-35,-224 -9,-453 72,-635c23,-49 41,-93 41,-96c0,-3 18,-36 40,-72c22,-36 40,-68 40,-70c0,-11 109,-156 154,-204c84,-92 225,-207 319,-262c77,-45 185,-100 206,-105c14,-3 31,-9 36,-13c51,-36 352,-118 529,-145c135,-20 455,-20 583,1c432,69 746,216 994,465c78,78 162,184 201,252c80,142 117,261 84,273c-21,8 -61,-28 -87,-78c-25,-49 -233,-257 -305,-305c-31,-21 -78,-52 -103,-69c-104,-70 -300,-163 -412,-194c-270,-76 -369,-90 -619,-90c-253,0 -363,16 -592,83c-95,28 -345,144 -367,170c-7,10 -19,17 -27,17c-30,0 -233,181 -305,272c-88,110 -179,259 -179,293c0,3 -9,25 -19,48c-49,109 -91,333 -91,488c0,76 30,236 60,325c39,111 53,193 48,283c-3,76 -8,94 -38,146c-18,32 -59,88 -90,124c-99,116 -128,160 -140,213c-13,51 -13,52 16,74c348,274 447,439 431,719l-4,90l90,44c77,37 110,47 223,64c122,19 143,20 251,8c162,-17 205,-28 304,-72c48,-22 91,-39 95,-39c5,0 36,-20 69,-45c33,-25 62,-45 66,-45c10,0 106,-101 134,-140c61,-87 77,-132 99,-275c7,-48 -22,-214 -47,-269c-65,-141 -171,-255 -345,-375c-78,-54 -272,-152 -459,-232c-48,-21 -62,-41 -42,-65" style="fill:none;fill-stroke:green;"/></svg>
